<svg xmlns="http://www.w3.org/2000/svg" viewBox="0 0 100 100">
  <g stroke="#4ade80" stroke-linecap="round" fill="none">
    <g transform="rotate(0, 50, 50)">
      <line x1="50" y1="12" x2="50" y2="88" stroke-width="5"/>
      <line x1="50" y1="28" x2="41" y2="19" stroke-width="3"/>
      <line x1="50" y1="28" x2="59" y2="19" stroke-width="3"/>
      <line x1="50" y1="72" x2="41" y2="81" stroke-width="3"/>
      <line x1="50" y1="72" x2="59" y2="81" stroke-width="3"/>
    </g>
    <g transform="rotate(60, 50, 50)">
      <line x1="50" y1="12" x2="50" y2="88" stroke-width="5"/>
      <line x1="50" y1="28" x2="41" y2="19" stroke-width="3"/>
      <line x1="50" y1="28" x2="59" y2="19" stroke-width="3"/>
      <line x1="50" y1="72" x2="41" y2="81" stroke-width="3"/>
      <line x1="50" y1="72" x2="59" y2="81" stroke-width="3"/>
    </g>
    <g transform="rotate(120, 50, 50)">
      <line x1="50" y1="12" x2="50" y2="88" stroke-width="5"/>
      <line x1="50" y1="28" x2="41" y2="19" stroke-width="3"/>
      <line x1="50" y1="28" x2="59" y2="19" stroke-width="3"/>
      <line x1="50" y1="72" x2="41" y2="81" stroke-width="3"/>
      <line x1="50" y1="72" x2="59" y2="81" stroke-width="3"/>
    </g>
  </g>
  <circle cx="50" cy="50" r="5" fill="#4ade80"/>
</svg>
